ffmpeg started on 2025-07-09 at 15:06:04
Report written to "D:\Convert\FFMetrics\reports\psnr_report-6.txt"
Log level: 32
Command line:
ffmpeg -hide_banner -nostdin -i "G:\\\xc0\xed\xe8\xec\xe5\\[\xd4\xe8\xeb\xfc\xec\xfb]\\[_\xcc\xe0\xea\xee\xf2\xee \xd1\xe8\xed\xea\xe0\xe9]\\\xd7\xe5\xe9-\xf2\xee \xe2\xe7\xee\xf0\\Dareka_no_Manazashi_[ru_jp]_[Zendos_&_Eladiel]_[WEBRip_720p]_[AAC]_HEVC.mkv" -i "G:\\\xc0\xed\xe8\xec\xe5\\[\xd4\xe8\xeb\xfc\xec\xfb]\\[_\xcc\xe0\xea\xee\xf2\xee \xd1\xe8\xed\xea\xe0\xe9]\\\xd7\xe5\xe9-\xf2\xee \xe2\xe7\xee\xf0\\Dareka_no_Manazashi_[ru_jp]_[Zendos_&_Eladiel]_[WEBRip_720p]_[AAC].mkv" -lavfi "[0:v]settb=AVTB,setpts=PTS-STARTPTS,format=pix_fmts=yuv420p10,fps=24000/1001,scale=1280:720:flags=bicubic[main];[1:v]settb=AVTB,setpts=PTS-STARTPTS,format=pix_fmts=yuv420p10,fps=24000/1001,scale=1280:720:flags=bicubic[ref];[main][ref]psnr=eof_action=endall:stats_file='D\\:/Convert/FFMetrics/logs/psnr_logfile-6.txt'" -f null -
Input #0, matroska,webm, from 'G:\Аниме\[Фильмы]\[_Макото Синкай]\Чей-то взор\Dareka_no_Manazashi_[ru_jp]_[Zendos_&_Eladiel]_[WEBRip_720p]_[AAC]_HEVC.mkv':
  Metadata:
    ENCODER         : Lavf61.7.100
  Duration: 00:06:44.93, start: -0.021000, bitrate: 751 kb/s
  Stream #0:0(jpn): Video: hevc (Main 10), yuv420p10le(tv, bt709, progressive), 1280x720 [SAR 1:1 DAR 16:9], 23.98 fps, 23.98 tbr, 1k tbn (default)
      Metadata:
        title           : Original
        ENCODER         : Lavc61.19.100 libx265
        BPS             : 553487
        DURATION        : 00:06:44.820708333
        NUMBER_OF_FRAMES: 9706
        NUMBER_OF_BYTES : 28007848
        _STATISTICS_WRITING_APP: mkvpropedit v66.0.0 ('Josie') 64-bit
        _STATISTICS_WRITING_DATE_UTC: 2025-07-08 11:43:31
        _STATISTICS_TAGS: BPS DURATION NUMBER_OF_FRAMES NUMBER_OF_BYTES
  Stream #0:1(rus): Audio: aac (LC), 48000 Hz, stereo, fltp (default)
      Metadata:
        title           : Zendos & Eladiel
        ENCODER         : Lavc61.19.100 aac
        BPS             : 193208
        DURATION        : 00:06:44.906000000
        NUMBER_OF_FRAMES: 18981
        NUMBER_OF_BYTES : 9778912
        _STATISTICS_WRITING_APP: mkvpropedit v66.0.0 ('Josie') 64-bit
        _STATISTICS_WRITING_DATE_UTC: 2025-07-08 11:43:31
        _STATISTICS_TAGS: BPS DURATION NUMBER_OF_FRAMES NUMBER_OF_BYTES
  Stream #0:2(rus): Subtitle: ass (ssa) (default) (forced)
      Metadata:
        title           : Надписи
        BPS             : 79
        DURATION        : 00:04:34.730000000
        NUMBER_OF_FRAMES: 15
        NUMBER_OF_BYTES : 2728
        _STATISTICS_WRITING_APP: mkvpropedit v66.0.0 ('Josie') 64-bit
        _STATISTICS_WRITING_DATE_UTC: 2025-07-08 11:43:31
        _STATISTICS_TAGS: BPS DURATION NUMBER_OF_FRAMES NUMBER_OF_BYTES
  Stream #0:3(rus): Subtitle: ass (ssa)
      Metadata:
        title           : Полные [Алекс Миф & DJATOM]
        BPS             : 238
        DURATION        : 00:06:12.260000000
        NUMBER_OF_FRAMES: 122
        NUMBER_OF_BYTES : 11114
        _STATISTICS_WRITING_APP: mkvpropedit v66.0.0 ('Josie') 64-bit
        _STATISTICS_WRITING_DATE_UTC: 2025-07-08 11:43:31
        _STATISTICS_TAGS: BPS DURATION NUMBER_OF_FRAMES NUMBER_OF_BYTES
Input #1, matroska,webm, from 'G:\Аниме\[Фильмы]\[_Макото Синкай]\Чей-то взор\Dareka_no_Manazashi_[ru_jp]_[Zendos_&_Eladiel]_[WEBRip_720p]_[AAC].mkv':
  Metadata:
    encoder         : libebml v1.4.2 + libmatroska v1.6.4
    creation_time   : 2024-12-15T11:53:53.000000Z
  Duration: 00:06:44.91, start: 0.000000, bitrate: 3070 kb/s
  Stream #1:0(jpn): Video: h264 (High 10), yuv420p10le(tv, bt709/unknown/unknown, progressive), 1280x720, SAR 1:1 DAR 16:9, 23.98 fps, 23.98 tbr, 1k tbn (default)
      Metadata:
        title           : Original
        BPS             : 2861421
        DURATION        : 00:06:44.821000000
        NUMBER_OF_FRAMES: 9706
        NUMBER_OF_BYTES : 144795443
        _STATISTICS_WRITING_APP: mkvmerge v66.0.0 ('Josie') 64-bit
        _STATISTICS_WRITING_DATE_UTC: 2024-12-15 11:53:53
        _STATISTICS_TAGS: BPS DURATION NUMBER_OF_FRAMES NUMBER_OF_BYTES
  Stream #1:1(rus): Audio: aac (LC), 48000 Hz, stereo, fltp (default)
      Metadata:
        title           : Zendos & Eladiel
        BPS             : 192091
        DURATION        : 00:06:44.906000000
        NUMBER_OF_FRAMES: 18980
        NUMBER_OF_BYTES : 9722362
        _STATISTICS_WRITING_APP: mkvmerge v66.0.0 ('Josie') 64-bit
        _STATISTICS_WRITING_DATE_UTC: 2024-12-15 11:53:53
        _STATISTICS_TAGS: BPS DURATION NUMBER_OF_FRAMES NUMBER_OF_BYTES
  Stream #1:2(rus): Subtitle: ass (ssa) (default) (forced)
      Metadata:
        title           : Надписи
        BPS             : 79
        DURATION        : 00:04:34.730000000
        NUMBER_OF_FRAMES: 15
        NUMBER_OF_BYTES : 2728
        _STATISTICS_WRITING_APP: mkvmerge v66.0.0 ('Josie') 64-bit
        _STATISTICS_WRITING_DATE_UTC: 2024-12-15 11:53:53
        _STATISTICS_TAGS: BPS DURATION NUMBER_OF_FRAMES NUMBER_OF_BYTES
  Stream #1:3(rus): Subtitle: ass (ssa)
      Metadata:
        title           : Полные [Алекс Миф & DJATOM]
        BPS             : 238
        DURATION        : 00:06:12.260000000
        NUMBER_OF_FRAMES: 122
        NUMBER_OF_BYTES : 11114
        _STATISTICS_WRITING_APP: mkvmerge v66.0.0 ('Josie') 64-bit
        _STATISTICS_WRITING_DATE_UTC: 2024-12-15 11:53:53
        _STATISTICS_TAGS: BPS DURATION NUMBER_OF_FRAMES NUMBER_OF_BYTES
  Stream #1:4: Attachment: ttf
      Metadata:
        filename        : BuxtonSketch_0_0_0.ttf
        mimetype        : application/x-truetype-font
        title           : Импортирован шрифт из Signs.ass
  Stream #1:5: Attachment: ttf
      Metadata:
        filename        : comicbd_0_0_0.ttf
        mimetype        : application/x-truetype-font
        title           : Импортирован шрифт из Signs.ass
  Stream #1:6: Attachment: ttf
      Metadata:
        filename        : BuxtonSketch_0_0_0.ttf
        mimetype        : application/x-truetype-font
        title           : Импортирован шрифт из Full.ass
  Stream #1:7: Attachment: ttf
      Metadata:
        filename        : comicbd_0_0_0.ttf
        mimetype        : application/x-truetype-font
        title           : Импортирован шрифт из Full.ass
Stream mapping:
  Stream #0:0 (hevc) -> settb:default
  Stream #1:0 (h264) -> settb:default
  psnr:default -> Stream #0:0 (wrapped_avframe)
  Stream #0:1 -> #0:1 (aac (native) -> pcm_s16le (native))
Output #0, null, to 'pipe:':
  Metadata:
    encoder         : Lavf61.7.100
  Stream #0:0: Video: wrapped_avframe, yuv420p10le(tv, bt709, progressive), 1280x720 [SAR 1:1 DAR 16:9], q=2-31, 200 kb/s, 23.98 fps, 23.98 tbn
      Metadata:
        encoder         : Lavc61.19.100 wrapped_avframe
  Stream #0:1(rus): Audio: pcm_s16le, 48000 Hz, stereo, s16, 1536 kb/s (default)
      Metadata:
        title           : Zendos & Eladiel
        _STATISTICS_TAGS: BPS DURATION NUMBER_OF_FRAMES NUMBER_OF_BYTES
        BPS             : 193208
        DURATION        : 00:06:44.906000000
        NUMBER_OF_FRAMES: 18981
        NUMBER_OF_BYTES : 9778912
        _STATISTICS_WRITING_APP: mkvpropedit v66.0.0 ('Josie') 64-bit
        _STATISTICS_WRITING_DATE_UTC: 2025-07-08 11:43:31
        encoder         : Lavc61.19.100 pcm_s16le
frame=  409 fps=0.0 q=-0.0 size=N/A time=00:00:17.05 bitrate=N/A speed=33.4x    frame=  985 fps=951 q=-0.0 size=N/A time=00:00:41.08 bitrate=N/A speed=39.7x    frame= 1456 fps=944 q=-0.0 size=N/A time=00:01:00.72 bitrate=N/A speed=39.4x    frame= 2064 fps=998 q=-0.0 size=N/A time=00:01:26.08 bitrate=N/A speed=41.6x    frame= 2648 fps=1028 q=-0.0 size=N/A time=00:01:50.44 bitrate=N/A speed=42.9x    frame= 3215 fps=1037 q=-0.0 size=N/A time=00:02:14.09 bitrate=N/A speed=43.3x    frame= 3685 fps=1021 q=-0.0 size=N/A time=00:02:33.69 bitrate=N/A speed=42.6x    frame= 4177 fps=1014 q=-0.0 size=N/A time=00:02:54.21 bitrate=N/A speed=42.3x    frame= 4638 fps=999 q=-0.0 size=N/A time=00:03:13.44 bitrate=N/A speed=41.7x    frame= 5020 fps=974 q=-0.0 size=N/A time=00:03:29.37 bitrate=N/A speed=40.6x    frame= 5479 fps=967 q=-0.0 size=N/A time=00:03:48.51 bitrate=N/A speed=40.3x    frame= 6014 fps=972 q=-0.0 size=N/A time=00:04:10.83 bitrate=N/A speed=40.5x    frame= 6607 fps=986 q=-0.0 size=N/A time=00:04:35.56 bitrate=N/A speed=41.1x    frame= 7148 fps=991 q=-0.0 size=N/A time=00:04:58.13 bitrate=N/A speed=41.3x    frame= 7722 fps=998 q=-0.0 size=N/A time=00:05:22.07 bitrate=N/A speed=41.6x    frame= 8329 fps=1010 q=-0.0 size=N/A time=00:05:47.38 bitrate=N/A speed=42.1x    frame= 8899 fps=1014 q=-0.0 size=N/A time=00:06:11.16 bitrate=N/A speed=42.3x    frame= 9489 fps=1022 q=-0.0 size=N/A time=00:06:35.77 bitrate=N/A speed=42.6x    [Parsed_psnr_10 @ 000001ffad1d7d80] PSNR y:46.556516 u:49.502770 v:49.609923 average:47.346166 min:38.117156 max:67.437162
[out#0/null @ 000001ffaa7e4580] video:4171KiB audio:75924KiB subtitle:0KiB other streams:0KiB global headers:0KiB muxing overhead: unknown
frame= 9706 fps=1030 q=-0.0 Lsize=N/A time=00:06:44.82 bitrate=N/A speed=42.9x    
